<svg width="97" height="41" viewBox="0 0 97 41" fill="none" xmlns="http://www.w3.org/2000/svg">
<path d="M21.5667 0.0273356C9.78184 -0.574657 -0.0021729 8.84498 3.61979e-07 20.506C3.61979e-07 21.6071 0.897557 22.5003 1.99868 22.5003H10.8366C11.7812 27.6676 16.3176 31.5976 21.7522 31.5976H27.3172C28.0466 31.5976 28.6378 31.0064 28.6378 30.2769V28.9216C28.6378 28.1921 28.0466 27.6009 27.3172 27.6009H21.7522C18.5328 27.6009 15.8076 25.4436 14.9419 22.5003H19.5405C23.7711 22.5003 27.5758 20.151 29.4694 16.3674C30.2221 14.862 30.1467 13.1104 29.2601 11.6767C28.3821 10.2511 26.8564 9.40278 25.1794 9.40278H21.7514C16.3168 9.40278 11.7805 13.3328 10.8359 18.5044H4.11833C5.15063 10.0004 12.6752 3.46688 21.5682 4.03121C29.7411 4.55061 36.3847 11.1436 36.9614 19.3128C37.6409 28.9455 29.9932 37.0039 20.4982 37.0039C14.3305 37.0039 8.68507 33.5158 5.86925 28.1385C5.70553 27.8248 5.38751 27.6227 5.034 27.6227H2.66876C1.99505 27.6227 1.5307 28.3174 1.80815 28.931C5.0963 36.2049 12.439 41.0005 20.4975 41.0005C32.0657 41.0005 41.4281 31.373 40.9848 19.7077C40.5849 9.18256 32.0846 0.564131 21.5667 0.0273356ZM21.7522 13.3994H25.1801C25.5691 13.3994 25.7734 13.6377 25.8618 13.7797C25.9495 13.9217 26.0748 14.2187 25.8951 14.578C24.6824 16.9983 22.2455 18.5037 19.5405 18.5037H14.9419C15.8032 15.556 18.5328 13.3994 21.7522 13.3994Z" fill="#1E3C72"/>
<path d="M66.4127 31.3506H61.1268L52.286 17.9657V31.3506H47V9.65039H52.286L61.1268 23.0971V9.65039H66.4127V31.3506Z" fill="#1E3C72"/>
<path d="M84.3712 9.65039V13.8853H75.5303V18.4603H82.1455V22.5716H75.5303V31.3506H70.2444V9.65039H84.3712Z" fill="#1E3C72"/>
<path d="M96.763 26.8684V31.3506H94.0737C92.1571 31.3506 90.663 30.8869 89.5914 29.9596C88.5198 29.0116 87.984 27.4763 87.984 25.3537V18.4912H85.882V14.1017H87.984V9.89769H93.27V14.1017H96.7321V18.4912H93.27V25.4155C93.27 25.9307 93.3936 26.3017 93.6409 26.5283C93.8882 26.755 94.3004 26.8684 94.8774 26.8684H96.763Z" fill="#1E3C72"/>
</svg>
