<svg width="31" height="31" viewBox="0 0 31 31" fill="none" xmlns="http://www.w3.org/2000/svg">
<path d="M14.0417 14.0417V8.20835H16.9584V14.0417H22.7917V16.9584H16.9584V22.7917H14.0417V16.9584H8.20835V14.0417H14.0417ZM15.5 30.0834C7.44565 30.0834 0.916687 23.5544 0.916687 15.5C0.916687 7.44565 7.44565 0.916687 15.5 0.916687C23.5544 0.916687 30.0834 7.44565 30.0834 15.5C30.0834 23.5544 23.5544 30.0834 15.5 30.0834ZM15.5 27.1667C18.5942 27.1667 21.5617 25.9375 23.7496 23.7496C25.9375 21.5617 27.1667 18.5942 27.1667 15.5C27.1667 12.4058 25.9375 9.43836 23.7496 7.25044C21.5617 5.06252 18.5942 3.83335 15.5 3.83335C12.4058 3.83335 9.43836 5.06252 7.25044 7.25044C5.06252 9.43836 3.83335 12.4058 3.83335 15.5C3.83335 18.5942 5.06252 21.5617 7.25044 23.7496C9.43836 25.9375 12.4058 27.1667 15.5 27.1667Z" fill="black"/>
</svg>
