<svg width="28" height="31" viewBox="0 0 28 31" fill="none" xmlns="http://www.w3.org/2000/svg">
<path d="M12.0417 0.916656C17.9742 0.916656 22.8713 5.34416 23.6121 11.0739L26.8933 16.235C27.1092 16.5748 27.0654 17.0808 26.5652 17.2967L23.7083 18.5187V22.7917C23.7083 24.4031 22.4031 25.7083 20.7917 25.7083H17.8765L17.875 30.0833H4.75V24.6962C4.75 22.9754 4.11417 21.3464 2.93583 19.8764C1.33313 17.8785 0.375 15.3425 0.375 12.5833C0.375 6.14041 5.59875 0.916656 12.0417 0.916656ZM12.0417 3.83332C7.20875 3.83332 3.29167 7.75041 3.29167 12.5833C3.29167 14.6031 3.97417 16.5106 5.21083 18.0521C6.80625 20.0412 7.66667 22.306 7.66667 24.6962V27.1667H14.9583L14.9613 22.7917H20.7917V16.5967L23.0521 15.6283L20.8019 12.0919L20.7188 11.4473C20.1588 7.11603 16.4517 3.83332 12.0417 3.83332ZM11.2688 9.32103L12.0417 10.0939L12.8146 9.32103C13.8121 8.32353 15.4279 8.32353 16.424 9.32103C17.4215 10.3171 17.4215 11.9329 16.424 12.9289L12.0417 17.3127L7.65938 12.9289C6.66187 11.9329 6.66187 10.3171 7.65938 9.32103C8.65542 8.32353 10.2713 8.32353 11.2688 9.32103Z" fill="black"/>
</svg>
