<svg width="27" height="30" viewBox="0 0 27 30" fill="none" xmlns="http://www.w3.org/2000/svg">
<path d="M26.625 3.33332H6.20833C5.43479 3.33332 4.69292 3.64061 4.14594 4.18759C3.59896 4.73458 3.29167 5.47644 3.29167 6.24999C3.29167 7.02354 3.59896 7.7654 4.14594 8.31238C4.69292 8.85937 5.43479 9.16666 6.20833 9.16666H26.625V28.125C26.625 28.5118 26.4714 28.8827 26.1979 29.1562C25.9244 29.4297 25.5534 29.5833 25.1667 29.5833H6.20833C4.66124 29.5833 3.17751 28.9687 2.08354 27.8748C0.989581 26.7808 0.375 25.2971 0.375 23.75V6.24999C0.375 4.70289 0.989581 3.21916 2.08354 2.1252C3.17751 1.03124 4.66124 0.416656 6.20833 0.416656H25.1667C25.5534 0.416656 25.9244 0.570302 26.1979 0.843792C26.4714 1.11728 26.625 1.48822 26.625 1.87499V3.33332ZM3.29167 23.75C3.29167 24.5235 3.59896 25.2654 4.14594 25.8124C4.69292 26.3594 5.43479 26.6667 6.20833 26.6667H23.7083V12.0833H6.20833C5.18433 12.085 4.17809 11.8158 3.29167 11.3031V23.75ZM25.1667 7.70832H6.20833C5.82156 7.70832 5.45063 7.55468 5.17714 7.28119C4.90365 7.0077 4.75 6.63676 4.75 6.24999C4.75 5.86322 4.90365 5.49228 5.17714 5.21879C5.45063 4.9453 5.82156 4.79166 6.20833 4.79166H25.1667V7.70832Z" fill="black"/>
</svg>
