<svg width="31" height="31" viewBox="0 0 31 31" fill="none" xmlns="http://www.w3.org/2000/svg">
<path d="M19.875 4.68206V15.5C19.8745 16.4286 19.5786 17.333 19.03 18.0822C18.4814 18.8315 17.7087 19.3867 16.8236 19.6677C15.9385 19.9486 14.987 19.9406 14.1067 19.6449C13.2265 19.3492 12.4631 18.781 11.9272 18.0227C11.3913 17.2643 11.1105 16.3551 11.1256 15.4266C11.1407 14.4981 11.4508 13.5985 12.0111 12.858C12.5714 12.1174 13.3528 11.5744 14.2422 11.3074C15.1316 11.0404 16.0829 11.0634 16.9584 11.3729V0.989563C24.3273 1.72019 30.0834 7.93852 30.0834 15.5C30.0834 23.5544 23.5544 30.0833 15.5 30.0833C7.44565 30.0833 0.916687 23.5544 0.916687 15.5C0.916687 7.93852 6.67273 1.72019 14.0417 0.989563V3.92373C11.0998 4.29806 8.41085 5.77854 6.52134 8.06426C4.63182 10.35 3.68355 13.2694 3.86926 16.2292C4.05496 19.189 5.36071 21.967 7.52111 23.9986C9.6815 26.0302 12.5344 27.163 15.5 27.1666C18.2086 27.1682 20.8334 26.2272 22.9241 24.505C25.0148 22.7829 26.4411 20.387 26.9584 17.7283C27.4758 15.0695 27.0519 12.3136 25.7594 9.9332C24.467 7.55281 22.3866 5.69629 19.875 4.68206Z" fill="black"/>
</svg>
