<svg width="22" height="29" viewBox="0 0 22 29" fill="none" xmlns="http://www.w3.org/2000/svg">
<path d="M21.33 15.28L1.45688 28.5287C1.3157 28.6227 1.15168 28.6766 0.982296 28.6847C0.812911 28.6928 0.644499 28.6548 0.494998 28.5747C0.345497 28.4947 0.220507 28.3756 0.133338 28.2301C0.0461692 28.0847 8.76008e-05 27.9183 0 27.7487V1.25123C8.76008e-05 1.08165 0.0461692 0.915267 0.133338 0.769806C0.220507 0.624346 0.345497 0.505253 0.494998 0.425211C0.644499 0.34517 0.812911 0.307177 0.982296 0.31528C1.15168 0.323383 1.3157 0.377279 1.45688 0.471225L21.33 13.72C21.4584 13.8056 21.5637 13.9216 21.6365 14.0576C21.7093 14.1937 21.7474 14.3457 21.7474 14.5C21.7474 14.6543 21.7093 14.8062 21.6365 14.9423C21.5637 15.0784 21.4584 15.1944 21.33 15.28Z" fill="#82AF7C"/>
</svg>
