<svg width="27" height="31" viewBox="0 0 27 31" fill="none" xmlns="http://www.w3.org/2000/svg">
<path d="M25.1667 30.0834H1.83333C1.44656 30.0834 1.07563 29.9297 0.802136 29.6562C0.528645 29.3827 0.375 29.0118 0.375 28.625V2.37502C0.375 1.98825 0.528645 1.61731 0.802136 1.34382C1.07563 1.07033 1.44656 0.916687 1.83333 0.916687H25.1667C25.5534 0.916687 25.9244 1.07033 26.1979 1.34382C26.4714 1.61731 26.625 1.98825 26.625 2.37502V28.625C26.625 29.0118 26.4714 29.3827 26.1979 29.6562C25.9244 29.9297 25.5534 30.0834 25.1667 30.0834ZM23.7083 27.1667V3.83335H3.29167V27.1667H23.7083ZM7.66667 8.20835H19.3333V11.125H7.66667V8.20835ZM7.66667 14.0417H19.3333V16.9584H7.66667V14.0417ZM7.66667 19.875H14.9583V22.7917H7.66667V19.875Z" fill="black"/>
</svg>
